<svg xmlns="http://www.w3.org/2000/svg" viewBox="0 0 400 400" aria-hidden="true"><defs><linearGradient id="c" x1="0" y1="0" x2="1" y2="1"><stop offset="0" stop-color="#dbe8fb"/><stop offset="1" stop-color="#bcd3f5"/></linearGradient><clipPath id="k"><circle cx="200" cy="205" r="178"/></clipPath></defs><circle cx="200" cy="205" r="178" fill="url(#c)"/><g clip-path="url(#k)"><path d="M0 250c60-40 130-38 190-8 40 20 80 22 120 6 40-16 70-10 90 0v160H0z" fill="#c9dbf7" opacity=".8"/><path d="M-10 300c70-30 150-20 220 10s130 20 200-6v110H-10z" fill="#b3cbf1" opacity=".75"/><g fill="#a9c3ee" opacity=".7"><rect x="290" y="200" width="30" height="90"/><rect x="318" y="178" width="26" height="112"/><rect x="344" y="214" width="34" height="76"/><circle cx="360" cy="232" r="26"/><circle cx="380" cy="244" r="22"/></g><g fill="#9dbbea" opacity=".75"><rect x="327" y="236" width="4" height="60"/><circle cx="329" cy="232" r="16"/><circle cx="320" cy="244" r="11"/><circle cx="338" cy="244" r="11"/></g><path d="M364 300V150q0-8 -8-8h-14" stroke="#8fb0e6" stroke-width="4" fill="none" opacity=".8"/><ellipse cx="338" cy="144" rx="12" ry="5" fill="#8fb0e6" opacity=".8"/><path d="M250 292h150" stroke="#9dbbea" stroke-width="3" opacity=".6"/></g><circle cx="318" cy="96" r="52" fill="#fff" opacity=".6"/></svg>
